<svg aria-hidden="true" style="position: absolute; width: 0; height: 0; overflow: hidden;" version="1.1" xmlns="http://www.w3.org/2000/svg" xmlns:xlink="http://www.w3.org/1999/xlink">
    <defs>
        <symbol id="icons-twitter" viewBox="0 0 32 32">
            <path d="M32 6.075c-1.177 0.523-2.443 0.874-3.77 1.035 1.357-0.812 2.395-2.099 2.885-3.631-1.269 0.753-2.677 1.298-4.169 1.594-1.196-1.276-2.903-2.073-4.79-2.073-3.627 0-6.567 2.936-6.567 6.564 0 0.516 0.058 1.017 0.168 1.496-5.456-0.274-10.294-2.885-13.53-6.86-0.563 0.969-0.889 2.099-0.889 3.302 0 2.278 1.159 4.286 2.918 5.463-1.075-0.033-2.088-0.329-2.973-0.823v0.084c0 3.181 2.264 5.833 5.266 6.436-0.549 0.15-1.13 0.23-1.73 0.23-0.424 0-0.834-0.040-1.232-0.117 0.834 2.607 3.258 4.505 6.129 4.56-2.245 1.759-5.072 2.808-8.151 2.808-0.53 0-1.049-0.029-1.565-0.091 2.907 1.861 6.355 2.947 10.063 2.947 12.075 0 18.679-10.001 18.679-18.675 0-0.285-0.007-0.567-0.018-0.848 1.283-0.929 2.399-2.084 3.276-3.401z"></path>
        </symbol>
        <symbol id="icons-instagram" viewBox="0 0 32 32">
            <path d="M16 7.691c-4.582 0-8.309 3.727-8.309 8.309s3.727 8.306 8.309 8.306c4.582 0 8.306-3.727 8.306-8.306 0.003-4.582-3.724-8.309-8.306-8.309zM16 21.138c-2.834 0-5.138-2.304-5.138-5.138s2.304-5.138 5.138-5.138c2.834 0 5.138 2.304 5.138 5.138s-2.304 5.138-5.138 5.138zM22.791 0h-13.583c-5.077 0-9.209 4.132-9.209 9.209v13.583c0 5.077 4.132 9.209 9.209 9.209h13.583c5.077 0 9.209-4.132 9.209-9.209v-13.583c0-5.077-4.129-9.209-9.209-9.209zM28.832 22.791c0 3.329-2.711 6.038-6.041 6.038h-13.583c-3.329 0-6.038-2.708-6.038-6.038v-13.583c0-3.329 2.708-6.038 6.038-6.038h13.583c3.329 0 6.038 2.708 6.038 6.038v13.583h0.003zM24.422 5.29c-1.197 0-2.174 0.974-2.174 2.174 0 1.197 0.974 2.174 2.174 2.174 1.197 0 2.174-0.974 2.174-2.174s-0.977-2.174-2.174-2.174z"></path>
        </symbol>
        <symbol id="icons-facebook" viewBox="0 0 32 32">
            <path d="M23.5 10.362h-5.113v-3.321c0-1.247 0.837-1.54 1.424-1.54h3.601v-5.483l-4.966-0.018c-5.508 0-6.758 4.089-6.758 6.708v3.654h-3.187v5.647h3.187v15.991h6.703v-15.987h4.523l0.587-5.651z"></path>
        </symbol>
        <symbol id="icons-icon-4" viewBox="0 0 20 32">
            <path d="M10 12.889c-1.924 0-3.481-1.488-3.481-3.328 0-1.835 1.557-3.324 3.481-3.324 1.92 0 3.476 1.488 3.476 3.324 0 1.839-1.557 3.328-3.476 3.328zM10 0c-5.523 0-10 4.281-10 9.561 0 3.855 5.317 15.381 8.199 21.338 0.708 1.467 2.89 1.467 3.603 0 2.877-5.957 8.199-17.484 8.199-21.338 0-5.28-4.477-9.561-10-9.561z"></path>
        </symbol>
        <symbol id="icons-icon-3" viewBox="0 0 64 32">
            <path d="M57.798 0c3.425 0 6.202 2.798 6.202 6.25v19.5c0 3.452-2.777 6.25-6.202 6.25h-51.597c-3.425 0-6.202-2.798-6.202-6.25v-19.5c0-3.452 2.777-6.25 6.202-6.25h51.597zM25.42 5.822c-1.357 0-2.564 0.233-3.62 0.698s-1.876 1.135-2.46 2.009c-0.584 0.874-0.877 1.9-0.877 3.078 0 1.254 0.288 2.256 0.863 3.007s1.263 1.311 2.064 1.681c0.801 0.371 1.843 0.746 3.125 1.126 0.943 0.266 1.683 0.508 2.22 0.727s0.985 0.518 1.343 0.898 0.537 0.864 0.537 1.454c0 0.722-0.264 1.306-0.792 1.753s-1.254 0.67-2.177 0.67c-0.905 0-1.617-0.238-2.135-0.713-0.498-0.456-0.783-1.069-0.855-1.841l-0.008-0.097h-4.242l0.003 0.13c0.040 1.161 0.368 2.173 0.987 3.034 0.641 0.893 1.513 1.577 2.616 2.052s2.343 0.712 3.719 0.712c1.452 0 2.705-0.271 3.761-0.812s1.857-1.268 2.404-2.18 0.82-1.9 0.82-2.964c0-1.235-0.292-2.232-0.877-2.992s-1.282-1.33-2.093-1.71c-0.811-0.38-1.857-0.76-3.139-1.14-0.943-0.285-1.673-0.537-2.192-0.755s-0.952-0.504-1.301-0.855c-0.349-0.351-0.523-0.793-0.523-1.325 0-0.76 0.231-1.339 0.693-1.739s1.079-0.598 1.852-0.598c0.886 0 1.598 0.223 2.135 0.67 0.515 0.428 0.8 0.965 0.856 1.611l0.006 0.085h4.355l-0.010-0.121c-0.154-1.728-0.853-3.079-2.097-4.054-1.272-0.998-2.927-1.496-4.963-1.496zM46.788 5.822c-1.848 0-3.544 0.437-5.090 1.311s-2.771 2.085-3.676 3.634c-0.905 1.549-1.357 3.292-1.357 5.23 0 1.957 0.452 3.71 1.357 5.258s2.13 2.76 3.676 3.634c1.546 0.874 3.243 1.311 5.090 1.311s3.544-0.437 5.090-1.311c1.546-0.874 2.767-2.085 3.662-3.634s1.343-3.301 1.343-5.258c0-1.938-0.448-3.681-1.343-5.23s-2.111-2.76-3.648-3.634c-1.536-0.874-3.238-1.311-5.104-1.311zM13.525 6.107h-3.959v19.893h3.959v-19.893zM46.788 9.413c1.188 0 2.234 0.266 3.139 0.798s1.612 1.297 2.121 2.294 0.764 2.161 0.764 3.491c0 1.33-0.255 2.498-0.764 3.506s-1.216 1.781-2.121 2.323c-0.905 0.541-1.951 0.812-3.139 0.812s-2.239-0.271-3.153-0.812c-0.914-0.542-1.626-1.316-2.135-2.323s-0.763-2.175-0.763-3.505 0.254-2.494 0.763-3.491c0.509-0.998 1.221-1.762 2.135-2.294s1.965-0.798 3.153-0.798z"></path>
        </symbol>
        <symbol id="icons-icon-2" viewBox="0 0 32 32">
            <path d="M9.278 21.191l14.768 8.581c-2.367 1.422-5.112 2.228-8.047 2.228-2.414 0-4.686-0.521-6.721-1.517v-9.292zM8.095 12.8v17.067c-4.449-2.465-7.526-7.064-8-12.421l8-4.646zM32 15.881v0.142c0 5.404-2.698 10.193-6.816 13.037l-8-4.599 14.816-8.581zM23.906 2.133c4.449 2.465 7.526 7.064 8 12.421l-8 4.646v-17.067zM6.816 2.939l8 4.599-14.816 8.533v-0.047c0-5.452 2.698-10.24 6.816-13.084zM16.001 0c2.414 0 4.686 0.521 6.721 1.517v9.244l-14.768-8.581c2.367-1.375 5.112-2.181 8.047-2.181z"></path>
        </symbol>
        <symbol id="icons-icon-1" viewBox="0 0 32 32">
            <path d="M16.746 0c0.129 0 0.234 0.105 0.234 0.234v0.245c0 0.129-0.105 0.234-0.234 0.234h-0.269v0.789c8.201 0.252 14.773 6.98 14.773 15.245 0 8.425-6.827 15.254-15.249 15.254s-15.251-6.829-15.251-15.254c0-8.264 6.572-14.992 14.773-15.244v-0.789h-0.269c-0.129 0-0.234-0.105-0.234-0.234v-0.245c0-0.129 0.105-0.234 0.234-0.234h1.492zM16.382 3.501v1.339c0 0.211-0.171 0.382-0.382 0.382s-0.382-0.171-0.382-0.382v-1.338c-7.015 0.2-12.662 5.847-12.86 12.863h1.338c0.211 0 0.382 0.171 0.382 0.382s-0.171 0.382-0.382 0.382h-1.338c0.2 7.016 5.846 12.664 12.86 12.863v-1.338c0-0.211 0.171-0.382 0.382-0.382s0.382 0.171 0.382 0.382v1.338c7.015-0.199 12.661-5.847 12.86-12.863h-1.338c-0.211 0-0.382-0.171-0.382-0.382s0.171-0.382 0.382-0.382h1.338c-0.199-7.017-5.845-12.664-12.86-12.863zM16 16.034c0.393 0 0.712 0.319 0.712 0.713 0 0.041-0.005 0.080-0.012 0.118l4.532 4.099c0.116 0.105 0.2 0.241 0.242 0.393l0.061 0.222c0.030 0.108-0.063 0.211-0.173 0.192l-0.228-0.039c-0.155-0.026-0.298-0.096-0.415-0.201l-4.532-4.1c-0.060 0.017-0.122 0.028-0.187 0.028-0.393 0-0.712-0.319-0.712-0.713s0.319-0.713 0.712-0.713z"></path>
        </symbol>
    </defs>
</svg>
